<?xml version="1.0" standalone="no"?>
<!DOCTYPE svg PUBLIC "-//W3C//DTD SVG 20010904//EN"
 "http://www.w3.org/TR/2001/REC-SVG-20010904/DTD/svg10.dtd">
<svg version="1.0" xmlns="http://www.w3.org/2000/svg"
 width="512.000000pt" height="512.000000pt" viewBox="0 0 512.000000 512.000000"
 preserveAspectRatio="xMidYMid meet">
<metadata>
Created by potrace 1.14, written by Peter Selinger 2001-2017
</metadata>
<g transform="translate(0.000000,512.000000) scale(0.100000,-0.100000)"
fill="#000000" stroke="none">
<path d="M2422 5109 c-189 -24 -300 -111 -231 -180 39 -39 156 -75 302 -94
l47 -6 0 -274 0 -274 28 -4 c15 -2 -3 -5 -39 -6 -120 -2 -291 40 -361 90 l-28
20 -1 202 -1 202 -22 -109 c-17 -88 -25 -111 -41 -117 -11 -4 -74 -24 -140
-44 -222 -68 -448 -185 -637 -328 l-91 -69 -66 66 c-44 43 -74 66 -90 66 -86
0 -241 -154 -241 -239 0 -30 10 -45 65 -101 l65 -66 -41 -54 c-129 -170 -258
-416 -324 -617 l-37 -112 -46 -10 c-26 -5 -126 -24 -222 -41 -199 -36 -208
-41 -235 -133 -27 -92 -40 -272 -27 -393 19 -177 50 -260 101 -266 20 -2 28 5
47 42 23 45 46 145 59 253 l6 57 274 0 c209 0 275 3 279 13 3 6 4 -30 1 -80
-6 -103 -33 -220 -65 -282 l-20 -41 -183 -1 -182 -1 87 -17 c49 -10 91 -21 95
-24 3 -4 18 -55 33 -114 67 -263 187 -512 355 -734 l73 -96 -79 -79 c-86 -85
-94 -106 -63 -166 41 -78 176 -187 233 -188 7 0 50 36 95 80 45 44 85 80 89
80 4 0 40 -24 80 -53 205 -150 452 -270 680 -329 45 -12 88 -26 95 -33 7 -6
21 -54 31 -106 l19 -94 1 93 c1 81 3 92 19 92 19 0 289 -29 340 -36 l32 -5 0
-219 0 -220 58 0 c123 0 265 38 314 83 22 20 30 48 57 198 17 96 37 185 44
198 10 19 30 29 99 47 248 66 484 184 754 379 10 7 34 -10 97 -73 90 -90 103
-95 168 -62 91 47 179 154 179 220 0 31 -10 45 -79 114 l-80 79 48 61 c180
227 336 553 396 828 9 43 19 78 23 78 10 0 386 71 404 76 48 14 87 181 88 374
0 198 -30 335 -82 373 -27 20 -28 20 -47 3 -11 -10 -27 -37 -36 -60 -18 -49
-45 -203 -45 -257 l0 -39 -280 0 -280 0 0 65 c0 84 25 205 55 273 l24 52 218
1 218 1 -135 26 c-74 14 -138 30 -142 36 -4 6 -20 47 -34 91 -66 200 -170 404
-293 575 l-69 95 64 65 c54 56 64 71 64 101 0 89 -154 239 -246 239 -19 0 -45
-18 -91 -63 l-66 -64 -96 72 c-211 158 -403 253 -666 333 l-129 38 -42 224
c-39 212 -43 225 -70 247 -80 64 -296 96 -482 72z m-393 -624 c-110 -186 356
-343 770 -259 41 9 103 27 138 41 62 25 153 94 153 116 1 37 17 38 91 4 285
-130 563 -373 743 -649 119 -182 212 -415 258 -640 20 -98 23 -142 23 -338 -1
-251 -12 -329 -82 -545 -222 -690 -855 -1184 -1585 -1233 -328 -23 -634 39
-933 188 -173 87 -297 174 -438 310 -173 166 -313 361 -396 553 l-34 77 26 58
c34 78 44 113 62 216 18 103 20 291 4 402 -22 161 -89 312 -150 341 -25 12
-26 16 -18 53 37 164 149 422 247 570 45 67 55 77 94 87 25 7 64 30 92 54 l47
42 -60 61 -60 61 28 38 c16 21 35 51 41 68 l13 30 56 -55 c31 -31 60 -56 64
-56 4 0 7 9 7 20 0 23 64 76 195 163 155 102 331 182 513 232 115 31 115 31
91 -10z m2050 -404 l20 -28 -63 -62 -63 -63 -25 34 c-33 44 -48 73 -48 95 0 9
26 43 57 75 l57 57 23 -40 c12 -22 31 -53 42 -68z m-3016 -2895 c18 -8 46 -26
62 -40 l30 -25 -71 -72 -72 -72 -63 39 c-35 21 -66 40 -68 41 -6 5 131 143
142 143 4 0 22 -6 40 -14z m3114 -58 l72 -72 -47 -26 c-26 -14 -57 -33 -69
-40 -22 -14 -26 -11 -93 55 l-70 69 26 27 c26 27 79 58 99 59 5 0 42 -32 82
-72z"/>
<path d="M1681 3774 c-152 -41 -289 -172 -355 -341 -144 -370 -23 -858 269
-1086 35 -27 33 -24 -16 28 -74 80 -112 137 -160 242 -23 49 -53 115 -69 148
-47 103 -55 135 -54 240 1 79 6 113 24 160 12 33 26 65 31 70 4 6 25 44 45 85
107 219 246 327 433 338 155 8 277 -43 406 -173 93 -93 152 -191 196 -322 23
-68 28 -77 23 -43 -3 25 -19 86 -36 135 -123 374 -442 598 -737 519z"/>
<path d="M3160 3767 c-89 -30 -149 -67 -226 -140 -81 -75 -143 -161 -189 -260
-37 -80 -85 -236 -84 -271 0 -11 8 6 18 39 57 201 197 384 357 467 92 48 158
62 259 55 178 -11 320 -119 423 -322 80 -157 90 -182 101 -233 23 -112 9 -215
-44 -327 -18 -38 -52 -110 -74 -158 -50 -110 -113 -199 -188 -267 -32 -29 -48
-47 -35 -41 13 7 55 42 94 79 379 358 380 1076 2 1327 -116 77 -280 98 -414
52z"/>
<path d="M1927 3140 c-52 -16 -95 -59 -129 -127 -32 -65 -33 -72 -33 -184 0
-113 1 -118 35 -184 56 -109 126 -149 225 -131 52 10 117 78 145 152 32 82 33
226 2 303 -53 135 -148 202 -245 171z m41 -145 c62 -52 62 -178 0 -230 -34
-29 -48 -31 -87 -10 -54 27 -77 133 -45 201 32 66 82 81 132 39z"/>
<path d="M3092 3139 c-111 -33 -191 -222 -164 -385 24 -142 97 -234 195 -242
93 -7 157 40 209 154 19 42 23 66 23 165 0 113 -1 118 -35 185 -54 105 -138
150 -228 123z m150 -130 c25 -14 57 -84 58 -127 0 -67 -54 -142 -102 -142 -11
0 -35 15 -53 33 -59 59 -56 169 6 221 33 28 59 32 91 15z"/>
<path d="M2462 3045 c0 -16 2 -22 5 -12 2 9 2 23 0 30 -3 6 -5 -1 -5 -18z"/>
<path d="M2652 3050 c0 -14 2 -19 5 -12 2 6 2 18 0 25 -3 6 -5 1 -5 -13z"/>
<path d="M1435 2020 c33 -108 140 -268 249 -375 152 -148 319 -238 546 -294
83 -20 120 -35 166 -67 139 -95 254 -141 382 -150 243 -18 482 150 625 441 24
50 50 106 57 125 8 19 30 60 50 90 57 85 87 140 109 200 l21 55 -21 -25 c-125
-151 -241 -253 -387 -342 -216 -131 -434 -187 -722 -188 -395 0 -770 180
-1033 495 -33 39 -47 51 -42 35z m1904 -432 c-7 -13 -53 -64 -103 -113 -104
-103 -192 -154 -317 -182 -104 -23 -258 -23 -334 2 l-60 19 92 7 c248 19 489
106 663 239 36 27 66 49 68 50 1 0 -3 -10 -9 -22z"/>
</g>
</svg>
